<svg width="300" height="88" viewBox="0 0 300 88" fill="none" xmlns="http://www.w3.org/2000/svg">
<path d="M34.285 42.7648C34.285 39.2165 35.6077 33.6032 37.9493 31.9061C40.2388 30.1577 44.3278 30.0068 47.7101 30.0068C52.3412 30.0068 56.0097 31.7039 58.7155 35.098C61.4213 38.4406 62.7743 44.1782 62.7743 50.0922V59.9953C62.7743 61.7952 62.2799 63.1837 61.2913 64.1608C60.3026 65.1378 58.8976 65.6264 57.0764 65.6264H13.4449C11.6237 65.6264 10.2188 65.1378 9.2301 64.1608C8.24143 63.1837 7.7471 61.7952 7.7471 59.9953V50.8636C7.7471 45.2068 9.02196 42.5077 11.5717 39.2165C14.1214 35.8738 17.6078 34.2025 22.0307 34.2025C24.8927 34.2025 27.4164 34.9739 29.6019 36.5166C31.7353 38.008 33.2964 40.0907 34.285 42.7648Z" fill="#025CCA"/>
<path fill-rule="evenodd" clip-rule="evenodd" d="M35.1768 51.3675V44.7998C35.1768 44.0141 35.1109 43.2438 34.9843 42.4942V39.7507C34.9843 34.7793 39.0163 30.7493 43.9901 30.7493H45.7017C50.6754 30.7493 54.7075 34.7793 54.7075 39.7507L54.7075 51.3675C54.7075 53.57 56.4938 55.3555 58.6974 55.3555C60.901 55.3555 62.6873 53.57 62.6873 51.3675L62.6873 39.7507C62.6873 30.3744 55.0826 22.7734 45.7017 22.7734H43.9901C37.0254 22.7734 31.0397 26.9631 28.4183 32.9585C26.3676 31.7449 23.9745 31.0482 21.4185 31.0482C13.82 31.0482 7.66016 37.205 7.66016 44.7998L7.66016 51.3675C7.66016 53.57 9.4465 55.3555 11.6501 55.3555C13.8536 55.3555 15.64 53.57 15.64 51.3675L15.64 44.7998C15.64 41.61 18.2271 39.0241 21.4185 39.0241C24.0966 39.0241 26.3491 40.8451 27.0045 43.3158V51.3675C27.0045 53.57 28.7908 55.3555 30.9944 55.3555C31.0265 55.3555 31.0585 55.3551 31.0904 55.3543C31.1225 55.3551 31.1547 55.3555 31.1869 55.3555C33.3905 55.3555 35.1768 53.57 35.1768 51.3675Z" fill="#B4DBFD"/>
<g clip-path="url(#clip0_710_70532)">
<path d="M114.366 49.9605C114.366 56.7939 110.15 62.3405 103.716 62.3405C100.921 62.3405 98.5691 61.2312 96.6167 59.1901V61.8968H89.6502V30.0371H97.2379V40.2429C99.1016 38.468 101.231 37.5805 103.716 37.5805C110.15 37.5805 114.366 43.0384 114.366 49.9605ZM106.467 49.9605C106.467 46.1445 104.204 44.4139 101.897 44.4139C99.5897 44.4139 97.3267 46.1001 97.3267 49.9161C97.3267 53.6878 99.5453 55.5071 101.897 55.5071C104.204 55.5071 106.467 53.6878 106.467 49.9605Z" fill="#025CCA"/>
<path d="M126.292 61.8968H118.704V38.0242H126.292V61.8968Z" fill="#025CCA"/>
<path d="M148.177 54.4422V61.0537C146.49 61.9856 144.893 62.3405 142.763 62.3405C137.394 62.3405 134.243 59.1457 134.243 53.6878V44.6358H129.806V38.0242H134.243V31.0133H141.831V38.0242H148.354V44.6358H141.831V51.9129C141.831 54.2203 142.807 55.2853 144.893 55.2853C146.135 55.2853 147.333 54.9747 148.177 54.4422Z" fill="#025CCA"/>
<path d="M162.981 62.2962C155.615 62.2962 150.69 57.3264 150.69 49.9161C150.69 42.7721 155.837 37.5805 162.937 37.5805C170.835 37.5805 176.115 44.0146 174.74 51.8686H158.544C158.943 54.8859 160.363 56.3946 162.804 56.3946C164.933 56.3946 166.353 55.5071 167.019 53.7766H174.607C173.142 59.2344 168.927 62.2962 162.981 62.2962ZM162.759 43.1715C160.496 43.1715 159.165 44.4583 158.633 47.1207H166.62C166.531 44.7245 165.022 43.1715 162.759 43.1715Z" fill="#025CCA"/>
<path d="M204.018 49.9605C204.018 56.8827 199.803 62.3405 193.368 62.3405C190.884 62.3405 188.754 61.4531 186.89 59.6782V70.4608H179.302V38.0242H186.269V40.731C188.221 38.6898 190.573 37.5805 193.368 37.5805C199.803 37.5805 204.018 43.1271 204.018 49.9605ZM196.12 49.9605C196.12 46.2332 193.857 44.4139 191.549 44.4139C189.197 44.4139 186.979 46.2332 186.979 50.0049C186.979 53.821 189.242 55.5071 191.549 55.5071C193.857 55.5071 196.12 53.7766 196.12 49.9605Z" fill="#025CCA"/>
<path d="M219.316 62.3405C212.261 62.3405 206.847 56.7939 206.847 49.9605C206.847 43.1271 212.261 37.5805 219.316 37.5805C226.371 37.5805 231.785 43.1271 231.785 49.9605C231.785 56.7939 226.371 62.3405 219.316 62.3405ZM219.316 55.5515C221.668 55.5515 223.887 53.6878 223.887 49.9605C223.887 46.2332 221.668 44.4139 219.316 44.4139C216.964 44.4139 214.746 46.2332 214.746 49.9605C214.746 53.6878 216.964 55.5515 219.316 55.5515Z" fill="#025CCA"/>
<path d="M243.741 61.8968H236.153V38.0242H243.741V61.8968Z" fill="#025CCA"/>
<path d="M257.195 49.3393V61.8968H249.607V38.0242H256.574V40.9085C258.437 38.8229 260.656 37.5805 263.673 37.5805C268.377 37.5805 271.705 40.731 271.705 46.5438V61.8968H264.117V49.0731C264.117 46.0557 263.052 44.4139 260.745 44.4139C258.881 44.4139 257.195 45.7451 257.195 49.3393Z" fill="#025CCA"/>
<path d="M293.163 54.4422V61.0537C291.477 61.9856 289.879 62.3405 287.749 62.3405C282.38 62.3405 279.23 59.1457 279.23 53.6878V44.6358H274.793V38.0242H279.23V31.0133H286.818V38.0242H293.34V44.6358H286.818V51.9129C286.818 54.2203 287.794 55.2853 289.879 55.2853C291.122 55.2853 292.32 54.9747 293.163 54.4422Z" fill="#025CCA"/>
<ellipse cx="122.412" cy="32.0645" rx="4.08497" ry="4.08497" fill="#B4DBFD"/>
<ellipse cx="240.059" cy="32.0645" rx="4.08497" ry="4.08497" fill="#B4DBFD"/>
</g>
<defs>
<clipPath id="clip0_710_70532">
<rect width="204.248" height="47.3857" fill="white" transform="translate(88.9149 23.0771)"/>
</clipPath>
</defs>
</svg>
